<?xml version="1.0" encoding="utf-8"?>
<!-- Generator: Adobe Illustrator 21.0.0, SVG Export Plug-In . SVG Version: 6.00 Build 0)  -->
<svg version="1.1" id="Слой_1" xmlns="http://www.w3.org/2000/svg" xmlns:xlink="http://www.w3.org/1999/xlink" x="0px" y="0px"
	 viewBox="0 0 429.4 138" style="enable-background:new 0 0 429.4 138;" xml:space="preserve">
<style type="text/css">
	.st0{clip-path:url(#SVGID_2_);fill:#E2A127;}
	.st1{clip-path:url(#SVGID_2_);fill:#80ADC0;}
	.st2{clip-path:url(#SVGID_2_);fill:#81A047;}
</style>
<g>
	<defs>
		<rect id="SVGID_1_" width="429.4" height="138"/>
	</defs>
	<clipPath id="SVGID_2_">
		<use xlink:href="#SVGID_1_"  style="overflow:visible;"/>
	</clipPath>
	<path class="st0" d="M316.6,41c0-2.6,0.9-4.7,2.7-6.5c1.8-1.8,4-2.7,6.5-2.7c2.6,0,4.7,0.9,6.5,2.7c1.8,1.8,2.7,4,2.7,6.5
		c0,2.6-0.9,4.7-2.7,6.5c-1.8,1.8-4,2.7-6.5,2.7c-2.6,0-4.7-0.9-6.5-2.7C317.5,45.7,316.6,43.5,316.6,41"/>
	<rect y="59" class="st1" width="11.2" height="50.8"/>
	<polygon class="st1" points="19.1,59 31.8,59 44.4,92.3 44.5,92.3 57.3,59 69.3,59 48.3,109.8 39.4,109.8 	"/>
	<polygon class="st1" points="93.8,88.1 74.7,59 88.7,59 99.4,78 110.8,59 124.1,59 105,88.1 105,109.8 93.8,109.8 	"/>
	<polygon class="st1" points="265.3,59 276.5,59 276.5,80.1 296.3,59 310.9,59 288.3,82.6 312.8,109.8 297.2,109.8 276.5,85.7 
		276.5,109.8 265.3,109.8 	"/>
	<rect x="320.2" y="59" class="st1" width="11.2" height="50.8"/>
	<path class="st1" d="M342.3,59h16.8c4.1,0,7.9,0.5,11.6,1.4c3.7,0.9,6.9,2.4,9.6,4.4c2.7,2,4.9,4.7,6.5,7.9
		c1.6,3.3,2.4,7.2,2.4,11.8c0,4.1-0.8,7.7-2.3,10.9c-1.6,3.1-3.6,5.8-6.3,7.9c-2.6,2.1-5.7,3.7-9.1,4.8c-3.4,1.1-7.1,1.7-10.8,1.7
		h-18.3V59z M353.5,99.4h5.8c2.6,0,5-0.3,7.2-0.8c2.2-0.5,4.1-1.4,5.8-2.6c1.6-1.2,2.9-2.8,3.8-4.8c0.9-2,1.4-4.4,1.4-7.3
		c0-2.5-0.5-4.7-1.4-6.5c-0.9-1.8-2.2-3.4-3.8-4.6c-1.6-1.2-3.4-2.1-5.6-2.7c-2.1-0.6-4.4-0.9-6.7-0.9h-6.6V99.4z"/>
	<path class="st1" d="M421.6,71.4c-0.9-1.1-2.1-2-3.7-2.5c-1.6-0.5-3-0.8-4.4-0.8c-0.8,0-1.7,0.1-2.5,0.3c-0.9,0.2-1.7,0.5-2.4,0.9
		c-0.8,0.4-1.4,0.9-1.9,1.6c-0.5,0.7-0.7,1.5-0.7,2.4c0,1.5,0.6,2.7,1.7,3.5c1.1,0.8,2.6,1.5,4.3,2.1c1.7,0.6,3.6,1.1,5.6,1.7
		c2,0.6,3.9,1.4,5.6,2.4c1.7,1.1,3.2,2.5,4.3,4.2c1.1,1.8,1.7,4.1,1.7,7.1c0,2.8-0.5,5.3-1.6,7.4s-2.5,3.8-4.3,5.2
		c-1.8,1.4-3.9,2.4-6.2,3.1c-2.4,0.7-4.9,1-7.5,1c-3.3,0-6.4-0.5-9.2-1.5c-2.8-1-5.5-2.6-7.9-4.9l8-8.8c1.1,1.5,2.6,2.7,4.3,3.6
		c1.7,0.8,3.5,1.3,5.4,1.3c0.9,0,1.8-0.1,2.8-0.3c0.9-0.2,1.8-0.5,2.5-1c0.7-0.4,1.3-1,1.8-1.7c0.5-0.7,0.7-1.5,0.7-2.4
		c0-1.5-0.6-2.7-1.8-3.6c-1.2-0.9-2.6-1.6-4.4-2.3c-1.8-0.6-3.7-1.2-5.7-1.9c-2.1-0.6-4-1.5-5.7-2.5c-1.8-1.1-3.2-2.4-4.4-4.2
		c-1.2-1.7-1.8-4-1.8-6.8c0-2.7,0.5-5.1,1.6-7.2c1.1-2.1,2.5-3.8,4.3-5.2c1.8-1.4,3.9-2.4,6.2-3.1c2.3-0.7,4.8-1,7.2-1
		c2.9,0,5.6,0.4,8.3,1.2c2.7,0.8,5.1,2.2,7.2,4.1L421.6,71.4z"/>
	<path class="st2" d="M255.7,59.2C255.7,59.2,255.7,59.2,255.7,59.2c-5.2-2.5-11.1-3.9-17.2-3.9c-7.4,0-14.3,2-20.3,5.4
		c0.6-3.6,1-7.3,1-11.1c0-13.5-4.2-26-11.5-36.2c-3.6-5.1-7.9-9.6-12.8-13.5l0,0l0,0c-4.9,3.8-9.2,8.4-12.8,13.5
		c-7.2,10.2-11.5,22.7-11.5,36.2c0,3.8,0.3,7.5,1,11.1c-6-3.4-12.9-5.4-20.3-5.4c-6.2,0-12,1.4-17.2,3.8c0,0,0,0.1,0,0.1
		c2.2,14.6,12.2,26.7,25.6,31.9c-1.5,2.9-2.3,6.3-2.3,9.8c0,3,0.6,5.8,1.7,8.4c0.1,0,0.1,0.1,0.2,0.1c2.8,1.1,13.3,2.4,21.5-1.7
		c3.9-2.3,8.4-5.6,11-9.6c0,0.1,0,0.2,0,0.4c0,17.8-14.5,32.3-32.4,32.3l0,7.3c21.6,0,39.2-17.3,39.6-38.8c2.6,3.5,6.7,6.4,10.2,8.4
		c8.2,4.1,18.7,2.8,21.5,1.7c0.1,0,0.1-0.1,0.2-0.1c1.1-2.6,1.7-5.4,1.7-8.4c0-3.5-0.8-6.8-2.3-9.8C243.5,86,253.5,73.9,255.7,59.2"
		/>
</g>
</svg>
